Coordinates
version=1
nRows=16
nColumns=22
inDegrees=yes

Units are S.I. units (second, meters, Newtons, ...)
If the header above contains a line with 'inDegrees', this indicates whether rotational values are in degrees (yes) or radians (no).

endheader
time	pelvis_tilt	pelvis_list	pelvis_rotation	pelvis_tx	pelvis_ty	pelvis_tz	hip_flexion_r	hip_adduction_r	hip_rotation_r	knee_angle_r	ankle_angle_r	subtalar_angle_r	hip_flexion_l	hip_adduction_l	hip_rotation_l	knee_angle_l	ankle_angle_l	subtalar_angle_l	lumbar_extension	lumbar_bending	lumbar_rotation
      0.01000000	    -10.58041478	      2.07187682	    -31.59228868	     -0.97606973	      0.88166717	     -0.34332808	      8.37849460	      1.99677309	      1.90770048	     -4.31480411	     11.15826600	     -0.29283098	      5.79314746	     -5.94618436	     -3.72130614	     -5.66683050	     14.79894410	      3.59965928	      5.86186619	      2.77218380	     11.82597509
      0.02000000	    -10.58699246	      2.06767240	    -31.58157362	     -0.97606851	      0.88165330	     -0.34327754	      8.37896514	      2.00545285	      1.90773503	     -4.31505688	     11.15964709	     -0.29279997	      5.79561560	     -5.95701341	     -3.72186642	     -5.66335037	     14.79939633	      3.59980869	      5.85939900	      2.74686954	     11.82919827
      0.03000000	    -10.63088862	      2.07593806	    -31.53745436	     -0.97605182	      0.88157743	     -0.34327516	      8.42074706	      2.01887564	      1.86381003	     -4.31909943	     11.17791898	     -0.30215528	      5.84969176	     -5.97378764	     -3.65810850	     -5.66577597	     14.80611157	      3.61765803	      5.90400275	      2.72335136	     11.81793764
      0.04000000	    -10.66489241	      2.07766021	    -31.49744846	     -0.97602899	      0.88152192	     -0.34325949	      8.44639859	      2.03314855	      1.83090993	     -4.31662364	     11.17862454	     -0.30752928	      5.89708057	     -5.99240791	     -3.62850538	     -5.68367541	     14.81329672	      3.62915702	      5.93469484	      2.69773691	     11.80472356
      0.05000000	    -10.67340063	      2.07084146	    -31.47838943	     -0.97600600	      0.88150608	     -0.34321203	      8.44522783	      2.04431796	      1.83171364	     -4.31745840	     11.17953702	     -0.30729498	      5.90016791	     -6.00599973	     -3.62940067	     -5.67926105	     14.81427886	      3.62923295	      5.93450086	      2.66509202	     11.80841634
      0.06000000	    -10.71423330	      2.07904379	    -31.40195282	     -0.97592460	      0.88143431	     -0.34325600	      8.46790875	      2.04793757	      1.76240941	     -4.29801507	     11.19060623	     -0.31465100	      5.95591014	     -6.01525985	     -3.53457327	     -5.68284733	     14.81865511	      3.64590167	      5.98341590	      2.63232410	     11.75781580
      0.07000000	    -10.72221134	      2.07152545	    -31.38068985	     -0.97589247	      0.88141987	     -0.34321684	      8.46588865	      2.05896145	      1.76246184	     -4.29998352	     11.19123595	     -0.31449133	      5.95824276	     -6.02877232	     -3.53618607	     -5.67900198	     14.81932178	      3.64591738	      5.98544155	      2.59897403	     11.76024101
      0.08000000	    -10.75092533	      2.08110708	    -31.31086214	     -0.97578903	      0.88136069	     -0.34324821	      8.46989479	      2.05533345	      1.68488889	     -4.26588059	     11.21256567	     -0.32148680	      5.99707632	     -6.02948483	     -3.46251800	     -5.67613197	     14.82169618	      3.65828861	      6.02922914	      2.55762430	     11.72058386
      0.09000000	    -10.77562405	      2.07992671	    -31.24300249	     -0.97575630	      0.88132152	     -0.34332135	      8.49684157	      2.06036409	      1.62562908	     -4.28481577	     11.21454831	     -0.32974619	      6.03806696	     -6.03884881	     -3.38721216	     -5.68414336	     14.81325108	      3.67199115	      6.05009702	      2.52737206	     11.65409949
      0.10000000	    -10.78165123	      2.07222060	    -31.22486093	     -0.97573371	      0.88131199	     -0.34330662	      8.49547408	      2.06981649	      1.62774886	     -4.28777785	     11.21492141	     -0.32963529	      6.03866717	     -6.05008506	     -3.38941888	     -5.68004068	     14.81442578	      3.67204529	      6.05294108	      2.49670417	     11.65307054
      0.11000000	    -10.79567978	      2.08203033	    -31.17307052	     -0.97567218	      0.88127259	     -0.34336848	      8.50524150	      2.05837257	      1.59254224	     -4.28149229	     11.23347616	     -0.33666953	      6.05710108	     -6.04144936	     -3.34570244	     -5.66241839	     14.81909112	      3.68306083	      6.07710418	      2.45620391	     11.59518053
      0.12000000	    -10.80065392	      2.07433406	    -31.15973554	     -0.97565707	      0.88126486	     -0.34337021	      8.50522475	      2.06756792	      1.59304793	     -4.28494339	     11.23350859	     -0.33676575	      6.05762417	     -6.05091088	     -3.34479670	     -5.66110789	     14.81814126	      3.68338431	      6.07815070	      2.42856843	     11.59523492
      0.13000000	    -10.80560775	      2.06708388	    -31.14363562	     -0.97563468	      0.88125626	     -0.34339635	      8.50581674	      2.07369533	      1.59356491	     -4.28885318	     11.23414282	     -0.33713157	      6.05829523	     -6.05777578	     -3.34346766	     -5.65721833	     14.81767299	      3.68408841	      6.07944272	      2.40371232	     11.59318375
      0.14000000	    -10.81248870	      2.08247758	    -31.09639647	     -0.97556477	      0.88122384	     -0.34349589	      8.52728677	      2.05122861	      1.55056368	     -4.31038703	     11.25814611	     -0.34865131	      6.06253348	     -6.03582053	     -3.27513150	     -5.62001901	     14.80455389	      3.70193265	      6.09931132	      2.36158532	     11.52921700
      0.15000000	    -10.81703694	      2.07491460	    -31.08369439	     -0.97552865	      0.88121401	     -0.34353325	      8.52684897	      2.05711362	      1.55062175	     -4.31290310	     11.25930800	     -0.34886477	      6.06141022	     -6.04125009	     -3.27578884	     -5.61780590	     14.80313604	      3.70233688	      6.10192290	      2.34216814	     11.53181727
      0.16000000	    -10.82154664	      2.06831586	    -31.07032457	     -0.97547950	      0.88120415	     -0.34358511	      8.52650843	      2.06012521	      1.55024720	     -4.31604061	     11.26097185	     -0.34924863	      6.05895404	     -6.04444863	     -3.27664218	     -5.61127537	     14.80227450	      3.70313566	      6.10602050	      2.32557626	     11.53303414
